<?xml version="1.0" standalone="no"?>
<!DOCTYPE svg PUBLIC "-//W3C//DTD SVG 20010904//EN"
 "http://www.w3.org/TR/2001/REC-SVG-20010904/DTD/svg10.dtd">
<svg version="1.0" xmlns="http://www.w3.org/2000/svg"
 width="128.000000pt" height="128.000000pt" viewBox="0 0 128.000000 128.000000"
 preserveAspectRatio="xMidYMid meet">

<g transform="translate(0.000000,128.000000) scale(0.100000,-0.100000)"
fill="#000000" stroke="none">
<path d="M515 1266 c-238 -55 -416 -218 -487 -446 -32 -105 -32 -255 0 -360
64 -207 225 -368 432 -432 105 -32 255 -32 360 0 207 64 368 225 432 432 32
105 32 255 0 360 -82 264 -313 444 -587 456 -55 2 -113 -2 -150 -10z m270 -37
c91 -23 93 -25 82 -72 -16 -71 -16 -70 -40 -63 -84 24 -290 24 -374 0 -24 -7
-24 -8 -40 63 -9 40 -9 42 16 52 25 10 87 25 141 35 36 7 168 -2 215 -15z
m-405 -75 c15 -38 12 -110 -6 -152 -34 -82 -111 -132 -204 -131 -91 1 -94 5
-58 67 40 69 125 161 191 206 29 19 55 35 60 36 4 0 12 -12 17 -26z m593 -8
c65 -42 163 -147 196 -211 30 -57 22 -65 -59 -65 -125 1 -220 93 -220 214 0
42 14 96 25 96 2 0 29 -15 58 -34z m-227 -398 c63 -63 64 -153 1 -215 -62 -63
-152 -62 -216 1 -34 35 -36 39 -36 106 0 63 3 71 30 100 41 43 60 50 128 47
51 -3 62 -8 93 -39z m-290 -135 c29 -98 97 -155 184 -155 87 0 155 57 184 155
5 16 22 17 213 15 l208 -3 -2 -54 c-5 -119 -76 -264 -176 -364 -111 -110 -273
-177 -427 -177 -93 0 -170 19 -267 66 -153 74 -264 203 -316 369 -20 63 -31
140 -22 154 4 7 76 11 211 11 186 0 205 -2 210 -17z"/>
<path d="M602 725 c-47 -20 -68 -72 -48 -119 38 -91 176 -68 176 29 0 49 -15
74 -55 91 -40 16 -32 17 -73 -1z m63 -25 c52 -20 52 -100 0 -120 -55 -21 -106
30 -85 85 8 21 24 33 57 44 1 1 13 -3 28 -9z"/>
</g>
</svg>
