<?xml version="1.0" standalone="no"?>
<!DOCTYPE svg PUBLIC "-//W3C//DTD SVG 20010904//EN"
 "http://www.w3.org/TR/2001/REC-SVG-20010904/DTD/svg10.dtd">
<svg version="1.0" xmlns="http://www.w3.org/2000/svg"
 width="128.000000pt" height="128.000000pt" viewBox="0 0 128.000000 128.000000"
 preserveAspectRatio="xMidYMid meet">

<g transform="translate(0.000000,128.000000) scale(0.100000,-0.100000)"
fill="#000000" stroke="none">
<path d="M515 1266 c-241 -57 -416 -217 -487 -446 -32 -105 -32 -255 0 -360
64 -207 225 -368 432 -432 105 -32 255 -32 360 0 207 64 368 225 432 432 32
105 32 255 0 360 -63 205 -226 368 -427 430 -90 27 -229 35 -310 16z m267 -35
c76 -20 158 -56 211 -93 l27 -19 0 -230 0 -229 -59 0 -59 0 -4 93 c-5 102 -21
149 -72 199 -96 96 -276 96 -372 0 -51 -50 -67 -97 -72 -199 l-4 -93 -59 0
-59 0 0 229 0 230 28 19 c139 98 331 134 494 93z m-36 -483 c63 -63 64 -153 1
-215 -62 -63 -152 -62 -216 1 -34 35 -36 39 -36 106 0 63 3 71 30 100 41 43
60 50 128 47 51 -3 62 -8 93 -39z m-290 -135 c29 -98 97 -155 184 -155 87 0
155 57 184 155 5 15 24 17 217 17 l212 0 -7 -60 c-23 -203 -153 -385 -339
-474 -184 -89 -350 -89 -534 0 -186 89 -316 271 -339 474 l-7 60 212 0 c193 0
212 -2 217 -17z"/>
<path d="M602 725 c-47 -20 -68 -72 -48 -119 38 -91 176 -68 176 29 0 49 -15
74 -55 91 -40 16 -32 17 -73 -1z m63 -25 c52 -20 52 -100 0 -120 -55 -21 -106
30 -85 85 8 21 24 33 57 44 1 1 13 -3 28 -9z"/>
</g>
</svg>
