<?xml version="1.0" standalone="no"?>
<!DOCTYPE svg PUBLIC "-//W3C//DTD SVG 20010904//EN"
 "http://www.w3.org/TR/2001/REC-SVG-20010904/DTD/svg10.dtd">
<svg version="1.0" xmlns="http://www.w3.org/2000/svg"
 width="128.000000pt" height="128.000000pt" viewBox="0 0 128.000000 128.000000"
 preserveAspectRatio="xMidYMid meet">

<g transform="translate(0.000000,128.000000) scale(0.100000,-0.100000)"
fill="#000000" stroke="none">
<path d="M533 1270 c-237 -43 -433 -218 -505 -450 -32 -105 -32 -255 0 -360
64 -207 225 -368 432 -432 105 -32 255 -32 360 0 207 64 368 225 432 432 32
105 32 255 0 360 -81 261 -310 441 -579 455 -48 2 -111 0 -140 -5z m287 -49
c83 -26 176 -82 242 -146 l52 -50 -48 -3 c-28 -2 -61 3 -80 12 -200 95 -430
103 -636 24 -30 -12 -59 -25 -64 -30 -6 -4 -34 -8 -64 -8 l-53 0 19 25 c62 78
207 164 322 190 85 19 224 13 310 -14z m-672 -286 c-51 -53 -65 -57 -42 -12
25 48 34 57 61 57 23 0 22 -2 -19 -45z m1019 0 c12 -22 20 -41 17 -44 -2 -2
-25 17 -51 43 -46 47 -47 48 -18 44 22 -2 35 -13 52 -43z m-1094 -100 c-3 -9
-8 -14 -10 -11 -3 3 -2 9 2 15 9 16 15 13 8 -4z m1145 -10 c-3 -3 -9 2 -12 12
-6 14 -5 15 5 6 7 -7 10 -15 7 -18z m-472 -77 c63 -63 64 -153 1 -215 -62 -63
-152 -62 -216 1 -34 35 -36 39 -36 106 0 63 3 71 30 100 41 43 60 50 128 47
51 -3 62 -8 93 -39z m-290 -135 c29 -98 97 -155 184 -155 87 0 155 57 184 155
5 16 22 17 213 15 l208 -3 -2 -54 c-5 -119 -76 -264 -176 -364 -111 -110 -273
-177 -427 -177 -93 0 -170 19 -267 66 -153 74 -264 203 -316 369 -20 63 -31
140 -22 154 4 7 76 11 211 11 186 0 205 -2 210 -17z"/>
<path d="M602 725 c-47 -20 -68 -72 -48 -119 38 -91 176 -68 176 29 0 49 -15
74 -55 91 -40 16 -32 17 -73 -1z m63 -25 c52 -20 52 -100 0 -120 -55 -21 -106
30 -85 85 8 21 24 33 57 44 1 1 13 -3 28 -9z"/>
</g>
</svg>
