<?xml version="1.0" encoding="UTF-8"?>
<svg xmlns="http://www.w3.org/2000/svg" xmlns:xlink="http://www.w3.org/1999/xlink" width="100pt" height="100pt" viewBox="0 0 100 100" version="1.1">
<g id="surface1">
<path style=" stroke:none;fill-rule:nonzero;fill:rgb(75.686275%,85.882353%,86.27451%);fill-opacity:1;" d="M 74.226562 61.585938 C 74.226562 81.523438 58.058594 97.691406 38.121094 97.691406 C 18.179688 97.691406 2.015625 81.523438 2.015625 61.585938 C 2.015625 41.644531 18.179688 25.480469 38.121094 25.480469 C 58.058594 25.480469 74.226562 41.644531 74.226562 61.585938 Z M 74.226562 61.585938 "/>
<path style=" stroke:none;fill-rule:nonzero;fill:rgb(100%,100%,100%);fill-opacity:1;" d="M 53.550781 97.070312 C 72.539062 97.070312 87.933594 81.542969 87.933594 62.386719 L 19.167969 62.386719 C 19.167969 81.542969 34.5625 97.070312 53.550781 97.070312 Z M 53.550781 97.070312 "/>
<path style=" stroke:none;fill-rule:nonzero;fill:rgb(29.803922%,14.117647%,11.372549%);fill-opacity:1;" d="M 53.550781 98.675781 C 33.707031 98.675781 17.566406 82.398438 17.566406 62.386719 C 17.566406 61.5 18.28125 60.78125 19.167969 60.78125 L 87.933594 60.78125 C 88.820312 60.78125 89.539062 61.5 89.539062 62.386719 C 89.539062 82.398438 73.394531 98.675781 53.550781 98.675781 Z M 20.8125 63.992188 C 21.644531 81.488281 36.011719 95.464844 53.550781 95.464844 C 71.09375 95.464844 85.460938 81.488281 86.289062 63.992188 Z M 20.8125 63.992188 "/>
<path style=" stroke:none;fill-rule:nonzero;fill:rgb(96.078431%,24.313725%,15.686275%);fill-opacity:1;" d="M 65.40625 30.386719 C 61.710938 29.039062 57.71875 28.304688 53.550781 28.304688 C 34.5625 28.304688 19.167969 43.566406 19.167969 62.386719 L 87.933594 62.386719 C 87.933594 52.574219 83.75 43.730469 77.058594 37.511719 "/>
<path style=" stroke:none;fill-rule:nonzero;fill:rgb(29.803922%,14.117647%,11.372549%);fill-opacity:1;" d="M 87.933594 63.992188 L 19.167969 63.992188 C 18.28125 63.992188 17.566406 63.273438 17.566406 62.386719 C 17.566406 42.707031 33.707031 26.699219 53.550781 26.699219 C 57.816406 26.699219 61.992188 27.433594 65.957031 28.878906 C 66.789062 29.183594 67.21875 30.101562 66.914062 30.933594 C 66.613281 31.769531 65.691406 32.199219 64.859375 31.894531 C 61.242188 30.578125 57.441406 29.910156 53.550781 29.910156 C 36.019531 29.910156 21.660156 43.617188 20.8125 60.78125 L 86.289062 60.78125 C 85.882812 52.324219 82.25 44.53125 75.964844 38.6875 C 75.316406 38.085938 75.277344 37.070312 75.882812 36.421875 C 76.484375 35.773438 77.5 35.734375 78.148438 36.339844 C 85.386719 43.0625 89.539062 52.558594 89.539062 62.386719 C 89.539062 63.273438 88.820312 63.992188 87.933594 63.992188 Z M 87.933594 63.992188 "/>
<path style=" stroke:none;fill-rule:nonzero;fill:rgb(96.078431%,24.313725%,15.686275%);fill-opacity:1;" d="M 72.453125 33.964844 C 71.882812 33.585938 71.304688 33.230469 70.707031 32.886719 "/>
<path style=" stroke:none;fill-rule:nonzero;fill:rgb(29.803922%,14.117647%,11.372549%);fill-opacity:1;" d="M 72.453125 35.566406 C 72.148438 35.566406 71.84375 35.484375 71.570312 35.304688 C 71.027344 34.945312 70.472656 34.601562 69.90625 34.277344 C 69.140625 33.832031 68.875 32.851562 69.320312 32.082031 C 69.761719 31.316406 70.742188 31.050781 71.511719 31.496094 C 72.132812 31.855469 72.742188 32.230469 73.339844 32.625 C 74.078125 33.113281 74.28125 34.105469 73.796875 34.847656 C 73.484375 35.3125 72.972656 35.566406 72.453125 35.566406 Z M 72.453125 35.566406 "/>
<path style=" stroke:none;fill-rule:nonzero;fill:rgb(92.941176%,92.156863%,86.27451%);fill-opacity:1;" d="M 64.535156 62.6875 C 64.535156 68.753906 59.617188 73.671875 53.550781 73.671875 C 47.484375 73.671875 42.570312 68.753906 42.570312 62.6875 C 42.570312 56.621094 47.484375 51.707031 53.550781 51.707031 C 59.617188 51.707031 64.535156 56.621094 64.535156 62.6875 Z M 64.535156 62.6875 "/>
<path style=" stroke:none;fill-rule:nonzero;fill:rgb(29.803922%,14.117647%,11.372549%);fill-opacity:1;" d="M 53.550781 75.277344 C 46.609375 75.277344 40.964844 69.628906 40.964844 62.6875 C 40.964844 55.746094 46.609375 50.101562 53.550781 50.101562 C 60.492188 50.101562 66.140625 55.746094 66.140625 62.6875 C 66.140625 69.628906 60.492188 75.277344 53.550781 75.277344 Z M 53.550781 53.308594 C 48.378906 53.308594 44.171875 57.515625 44.171875 62.6875 C 44.171875 67.859375 48.378906 72.066406 53.550781 72.066406 C 58.722656 72.066406 62.929688 67.859375 62.929688 62.6875 C 62.929688 57.515625 58.722656 53.308594 53.550781 53.308594 Z M 53.550781 53.308594 "/>
<path style=" stroke:none;fill-rule:nonzero;fill:rgb(92.941176%,92.156863%,86.27451%);fill-opacity:1;" d="M 58.332031 62.6875 C 58.332031 65.328125 56.191406 67.46875 53.550781 67.46875 C 50.910156 67.46875 48.769531 65.328125 48.769531 62.6875 C 48.769531 60.046875 50.910156 57.90625 53.550781 57.90625 C 56.191406 57.90625 58.332031 60.046875 58.332031 62.6875 Z M 58.332031 62.6875 "/>
<path style=" stroke:none;fill-rule:nonzero;fill:rgb(29.803922%,14.117647%,11.372549%);fill-opacity:1;" d="M 53.550781 69.074219 C 50.03125 69.074219 47.164062 66.207031 47.164062 62.6875 C 47.164062 59.167969 50.03125 56.300781 53.550781 56.300781 C 57.070312 56.300781 59.9375 59.167969 59.9375 62.6875 C 59.9375 66.207031 57.070312 69.074219 53.550781 69.074219 Z M 53.550781 59.511719 C 51.800781 59.511719 50.375 60.9375 50.375 62.6875 C 50.375 64.4375 51.800781 65.863281 53.550781 65.863281 C 55.300781 65.863281 56.726562 64.4375 56.726562 62.6875 C 56.726562 60.9375 55.300781 59.511719 53.550781 59.511719 Z M 53.550781 59.511719 "/>
<path style=" stroke:none;fill-rule:nonzero;fill:rgb(29.803922%,14.117647%,11.372549%);fill-opacity:1;" d="M 90.269531 15.851562 C 89.386719 15.851562 88.667969 15.132812 88.667969 14.246094 L 88.667969 9.433594 C 88.667969 8.546875 89.386719 7.828125 90.269531 7.828125 C 91.15625 7.828125 91.875 8.546875 91.875 9.433594 L 91.875 14.246094 C 91.875 15.132812 91.15625 15.851562 90.269531 15.851562 Z M 90.269531 15.851562 "/>
<path style=" stroke:none;fill-rule:nonzero;fill:rgb(29.803922%,14.117647%,11.372549%);fill-opacity:1;" d="M 90.269531 27.082031 C 89.386719 27.082031 88.667969 26.363281 88.667969 25.480469 L 88.667969 20.664062 C 88.667969 19.78125 89.386719 19.0625 90.269531 19.0625 C 91.15625 19.0625 91.875 19.78125 91.875 20.664062 L 91.875 25.480469 C 91.875 26.363281 91.15625 27.082031 90.269531 27.082031 Z M 90.269531 27.082031 "/>
<path style=" stroke:none;fill-rule:nonzero;fill:rgb(29.803922%,14.117647%,11.372549%);fill-opacity:1;" d="M 87.0625 19.0625 L 82.246094 19.0625 C 81.363281 19.0625 80.644531 18.34375 80.644531 17.457031 C 80.644531 16.570312 81.363281 15.851562 82.246094 15.851562 L 87.0625 15.851562 C 87.949219 15.851562 88.667969 16.570312 88.667969 17.457031 C 88.667969 18.34375 87.949219 19.0625 87.0625 19.0625 Z M 87.0625 19.0625 "/>
<path style=" stroke:none;fill-rule:nonzero;fill:rgb(29.803922%,14.117647%,11.372549%);fill-opacity:1;" d="M 98.292969 19.0625 L 93.480469 19.0625 C 92.59375 19.0625 91.875 18.34375 91.875 17.457031 C 91.875 16.570312 92.59375 15.851562 93.480469 15.851562 L 98.292969 15.851562 C 99.179688 15.851562 99.898438 16.570312 99.898438 17.457031 C 99.898438 18.34375 99.179688 19.0625 98.292969 19.0625 Z M 98.292969 19.0625 "/>
<path style=" stroke:none;fill-rule:nonzero;fill:rgb(29.803922%,14.117647%,11.372549%);fill-opacity:1;" d="M 4.945312 50.628906 C 4.140625 50.628906 3.347656 50.429688 2.617188 50.039062 C 1.453125 49.417969 0.597656 48.378906 0.214844 47.109375 C -0.167969 45.847656 -0.0351562 44.507812 0.585938 43.339844 C 1.210938 42.175781 2.25 41.324219 3.515625 40.9375 C 6.125 40.144531 8.898438 41.628906 9.6875 44.242188 C 10.480469 46.851562 9 49.621094 6.386719 50.414062 C 5.914062 50.558594 5.429688 50.628906 4.945312 50.628906 Z M 4.953125 43.933594 C 4.785156 43.933594 4.613281 43.960938 4.445312 44.011719 C 4.003906 44.144531 3.636719 44.445312 3.417969 44.855469 C 3.199219 45.265625 3.152344 45.734375 3.289062 46.183594 C 3.421875 46.625 3.722656 46.992188 4.128906 47.210938 C 4.539062 47.429688 5.011719 47.476562 5.457031 47.339844 C 6.375 47.0625 6.894531 46.089844 6.617188 45.171875 C 6.390625 44.417969 5.699219 43.933594 4.953125 43.933594 Z M 4.953125 43.933594 "/>
<path style=" stroke:none;fill-rule:nonzero;fill:rgb(29.803922%,14.117647%,11.372549%);fill-opacity:1;" d="M 8.121094 11.308594 C 5.394531 11.308594 3.171875 9.089844 3.171875 6.359375 C 3.171875 3.628906 5.394531 1.410156 8.121094 1.410156 C 10.851562 1.410156 13.074219 3.628906 13.074219 6.359375 C 13.074219 9.089844 10.851562 11.308594 8.121094 11.308594 Z M 8.121094 4.617188 C 7.164062 4.617188 6.382812 5.398438 6.382812 6.359375 C 6.382812 7.316406 7.164062 8.097656 8.121094 8.097656 C 9.082031 8.097656 9.863281 7.316406 9.863281 6.359375 C 9.863281 5.398438 9.082031 4.617188 8.121094 4.617188 Z M 8.121094 4.617188 "/>
<path style=" stroke:none;fill-rule:nonzero;fill:rgb(29.803922%,14.117647%,11.372549%);fill-opacity:1;" d="M 23.289062 28.257812 C 22.875 28.257812 22.464844 28.101562 22.152344 27.785156 C 21.527344 27.160156 21.527344 26.144531 22.152344 25.519531 L 26.882812 20.785156 C 27.511719 20.160156 28.527344 20.160156 29.152344 20.785156 C 29.777344 21.414062 29.777344 22.429688 29.152344 23.054688 L 24.421875 27.785156 C 24.105469 28.101562 23.699219 28.257812 23.289062 28.257812 Z M 23.289062 28.257812 "/>
<path style=" stroke:none;fill-rule:nonzero;fill:rgb(29.803922%,14.117647%,11.372549%);fill-opacity:1;" d="M 28.019531 28.257812 C 27.609375 28.257812 27.199219 28.101562 26.882812 27.785156 L 22.152344 23.054688 C 21.527344 22.429688 21.527344 21.414062 22.152344 20.785156 C 22.777344 20.160156 23.792969 20.160156 24.421875 20.785156 L 29.152344 25.519531 C 29.777344 26.144531 29.777344 27.160156 29.152344 27.785156 C 28.839844 28.101562 28.429688 28.257812 28.019531 28.257812 Z M 28.019531 28.257812 "/>
<path style=" stroke:none;fill-rule:nonzero;fill:rgb(29.803922%,14.117647%,11.372549%);fill-opacity:1;" d="M 52.660156 9.183594 C 52.660156 10.664062 51.460938 11.863281 49.984375 11.863281 C 48.507812 11.863281 47.308594 10.664062 47.308594 9.183594 C 47.308594 7.707031 48.507812 6.507812 49.984375 6.507812 C 51.460938 6.507812 52.660156 7.707031 52.660156 9.183594 Z M 52.660156 9.183594 "/>
<path style=" stroke:none;fill-rule:nonzero;fill:rgb(29.803922%,14.117647%,11.372549%);fill-opacity:1;" d="M 97.589844 42.882812 C 97.589844 44.363281 96.394531 45.558594 94.914062 45.558594 C 93.4375 45.558594 92.238281 44.363281 92.238281 42.882812 C 92.238281 41.40625 93.4375 40.207031 94.914062 40.207031 C 96.394531 40.207031 97.589844 41.40625 97.589844 42.882812 Z M 97.589844 42.882812 "/>
</g>
</svg>
